# xmcd
#
# Track frame offsets:
#	150
#	19479
#	36204
#	49695
#	65061
#	84108
#	98124
#	115139
#	130953
#	148946
#	165293
#	183064
#	199412
#	216412
#	236885
#
# Disc length: 3378 seconds
#
# Revision: 0
# Processed by: cddbd v1.5.2PL0 Copyright (c) Steve Scherf et al.
# Submitted via: audiograbber 1.83.01
#
DISCID=d90d300f
DTITLE=Sound Choice - Country Hits - Vol. 33 SC8179
DYEAR=1900
DGENRE=Karaoke
TTITLE0=Shenandoah and Alison Krauss - Somewhere In The Vicinity Of The Heart
TTITLE1=Neal McCoy - They're Playing Our Song
TTITLE2=Clint Black - Summer's Comin'
TTITLE3=Linda Ronstadt - Walk On
TTITLE4=Forerunner - Cain's Blood
TTITLE5=John Randall - I Came Straight For You
TTITLE6=Tanya Tucker - Find Out What's Happenin'
TTITLE7=Alan Jackson - I Don't Even Know Your Name
TTITLE8=Vince Gill - You Better Think Twice
TTITLE9=Pam Tillis - In Between Dances
TTITLE10=Daron Norwood - My Girl Friday
TTITLE11=Reba McEntire - And Still
TTITLE12=Victoria Shaw - Forgiveness
TTITLE13=Crystal Gayle and Eddie Rabbit - I Made A Promise
TTITLE14=Joe Diffie - I'm In Love With A Capital "U"
EXTD=
EXTT0=
EXTT1=
EXTT2=
EXTT3=
EXTT4=
EXTT5=
EXTT6=
EXTT7=
EXTT8=
EXTT9=
EXTT10=
EXTT11=
EXTT12=
EXTT13=
EXTT14=
PLAYORDER=
